<?xml version="1.0" encoding="UTF-8" standalone="no"?>
<svg width="284px" height="763px" viewBox="0 0 284 800" version="1.1" xmlns="http://www.w3.org/2000/svg" xmlns:xlink="http://www.w3.org/1999/xlink" xmlns:sketch="http://www.bohemiancoding.com/sketch/ns">
    <!-- Generator: Sketch 3.0.2 (7799) - http://www.bohemiancoding.com/sketch -->
    <title>kabouters</title>
    <description>Created with Sketch.</description>
    <defs></defs>
    <g id="hoed" stroke="none" stroke-width="1" fill="none" fill-rule="evenodd" sketch:type="MSPage">
	    <animateTransform attributeName="transform" type="translate" values="0 47; 0 0; 0 47" begin="0s" dur=".5s" repeatCount="indefinite" />
        <g id="kabouter-1" sketch:type="MSLayerGroup" transform="translate(1.000000, 1.000000)">
            <g transform="translate(50.000000, 560.000000)">
	            <g id="benen" stroke="#000000" sketch:type="MSShapeGroup">
	                <g id="been" transform="translate(25.000000, 16.000000)">
	                    <path d="M-0.19140625,-0.18359375 C-0.19140625,-0.18359375 6.9375,34.3867188 22.0742188,58.6914062 C17.5820312,69.6210938 17.3516622,76.5833446 22.0742188,81.5273438 C37.9023438,98.0976562 67.34375,85.65625 67.34375,85.65625 C67.34375,85.65625 64.492126,71.3935051 67.34375,58.6914062 C71.6575663,39.4762077 81.6931906,18.271051 76.3007812,11.3359375 C67.34375,-0.18359375 -0.19140625,-0.18359375 -0.19140625,-0.18359375 Z" id="Path-49" fill="#FFFFFF"></path>
	                    <path d="M54.7773438,61.25 C54.7773438,61.25 38.2109375,76.125 29.9492188,62.6875" id="Path-50"></path>
	                </g>
	                <g id="been" transform="translate(84.000000, 0.000000)">
	                    <path d="M12.6451495,10.1419744 C12.6451495,10.1419744 17.8830186,44.0611506 33.0197373,68.3658381 C28.5275498,79.2955256 28.2971808,86.2577764 33.0197373,91.2017756 C48.8478623,107.772088 78.2892686,95.3306818 78.2892686,95.3306818 C78.2892686,95.3306818 75.4376446,81.067937 78.2892686,68.3658381 C82.6030849,49.1506395 92.6387092,27.9454828 87.2462998,21.0103693 C78.2892686,9.4908381 12.6451495,10.1419744 12.6451495,10.1419744 Z" id="Path-52" fill="#FFFFFF" transform="translate(50.945519, 54.674432) rotate(-19.000000) translate(-50.945519, -54.674432) "></path>
	                    <path d="M65.7773438,71.25 C65.7773438,71.25 49.2109375,86.125 40.9492188,72.6875" id="Path-51" transform="translate(53.500000, 74.500000) rotate(-19.000000) translate(-53.500000, -74.500000) "></path>
	                </g>
	                <g id="schoen" transform="translate(0.000000, 93.000000)">
	                    <path d="M98.0429688,17.0429688 L96.5625,64.1796875 C96.5625,64.1796875 51.1171875,102.1875 12.3710938,83.1835938 C-26.375,64.1796875 37.0273438,59.9609375 37.0273438,59.9609375 L47.1171875,7.21484375 L98.0429688,17.0429688 Z" id="Path-55" fill="#FFFFFF"></path>
	                    <path d="M92.6328125,0.257812397 C101.199219,13.304688 101.199219,36.2617187 101.199219,36.2617187 L88.5898438,28.4335937 L85.4570312,43.5664062 L77.5859375,27.2617187 L61.9765625,57.7890625 L61.9765625,29.5234375 L52.7148438,46.046875 L50.7148438,24.609375 L37.015625,43.1328125 L38.015625,18.4335937 L42.0585938,0.2578125 C42.0585938,0.2578125 69.1074219,18.433593 92.6328125,0.257812397 Z" id="Path-53" fill="#FFFFFF"></path>
	                </g>
	                <g id="schoen" transform="translate(79.000000, 82.000000)">
	                    <path d="M105.042969,28.0429688 L103.5625,75.1796875 C103.5625,75.1796875 58.1171875,113.1875 19.3710938,94.1835938 C-19.375,75.1796875 44.0273438,70.9609375 44.0273438,70.9609375 L54.1171875,18.2148438 L105.042969,28.0429688 Z" transform="translate(56.000000, 59.000000) rotate(-12.000000) translate(-56.000000, -59.000000) " fill="#FFFFFF"></path>
	                    <path d="M96.6328125,4.2578124 C105.199219,17.304688 105.199219,40.2617187 105.199219,40.2617187 L92.5898438,32.4335937 L89.4570312,47.5664062 L81.5859375,31.2617187 L65.9765625,61.7890625 L65.9765625,33.5234375 L56.7148438,50.046875 L54.7148438,28.609375 L41.015625,47.1328125 L42.015625,22.4335937 L46.0585938,4.2578125 C46.0585938,4.2578125 73.1074219,22.433593 96.6328125,4.2578124 Z" fill="#FFFFFF" transform="translate(73.000000, 33.000000) scale(-1, 1) rotate(8.000000) translate(-73.000000, -33.000000) "></path>
	                </g>
	            </g>
	        </g>
	        <g transform="translate(0.000000, 318.000000)">
	            <g id="torso" sketch:type="MSShapeGroup">
	                <path d="M208.492188,24.4296875 C208.492188,24.4296875 281.855469,70.3125 281.855469,100.578125 C281.855469,130.84375 234.238281,175.460938 234.238281,175.460938 L219.625,108.492188 C219.625,108.492188 238.980469,80.7460938 257.242188,99.7929688" id="arm" stroke="#000000" fill="#FFFFFF"></path>
	                <path d="M55.1523438,17.796875 C55.1523438,17.796875 -6.73046875,76.109375 1.18359375,108.375 C9.09765625,140.640625 31.929688,183.214844 40.8867188,183.214844 C49.8437495,183.214844 49.8867188,102.242188 49.8867188,102.242188 C49.8867188,102.242188 27.2773438,80.9375 14.2304687,100.765625" id="arm" stroke="#000000" fill="#FFFFFF"></path>
	                <path d="M62.03125,228.839844 C62.03125,228.839844 52.375,249.886719 57.203125,256.671875 C62.03125,263.457031 131.914063,311.378906 227.886719,250.628906 C227.886721,250.628905 219.753906,218.058594 219.753906,218.058594 L62.03125,228.839844 Z" id="buik2" stroke="#000000" fill="#FFFFFF"></path>
	                <path d="M49.2421875,190.480469 L61.6367188,229.792969 C61.6367188,229.792969 212.320312,255.1875 222.667969,212.789062 C233.015625,170.390625 233.015625,170.390625 233.015625,170.390625 L49.2421875,190.480469 Z" id="riem" fill="#000000"></path>
	                <g id="gesp" transform="translate(100.000000, 201.000000)" stroke="#000000">
	                    <path d="M54.1757813,0.00390625 C54.1757813,0.00390625 64.4765625,25.2226562 56.6523438,32.8789062 C48.828125,40.5351562 2.33984375,33.6640625 2.33984375,33.6640625 L-0.3984375,2.52734375 L54.1757813,0.00390625 Z M48.4376953,4.00303819 C48.4376953,4.00303819 56.5066406,23.6176215 50.3776693,29.5724826 C44.2486979,35.5273438 7.8328776,30.1831597 7.8328776,30.1831597 L5.68789062,5.96571181 L48.4376953,4.00303819 Z" id="Path-45" fill="#F8F8F8"></path>
	                    <path d="M2.94140625,12.4726562 L22.2929688,13.4726562 L22.2929688,21.6914062 L1.76953125,21.6914062 L2.94140625,12.4726562 Z" id="Path-47" fill="#FFFFFF"></path>
	                </g>
	                <path d="M172.591216,5.48368791 L207.470334,23.9865253 C207.470334,23.9865253 274.375422,157.372888 234.708509,171.827489 C195.041596,186.28209 125.845545,228.768819 53.7673142,192.908871 C-18.3109164,157.048924 53.7356419,21.5554764 53.7356419,21.5554764 C53.7356419,21.5554764 66.4971129,6.39234469 100.953758,1.73307716 C135.410404,-2.92619037 172.591216,5.48368791 172.591216,5.48368791 Z" id="buik" stroke="#000000" fill="#FFFFFF"></path>
	            </g>
	        </g>
            <g transform="translate(42.000000, 0.000000)">
	            <g id="hoofd" sketch:type="MSShapeGroup">
	                <g id="Group" transform="translate(0.000000, 169.000000)" stroke="#000000">
	                    <path d="M78.4648435,0.35546875 C28.1523435,-1.67007032 11.1953125,37.5351563 11.1953125,37.5351563 C11.1953125,37.5351563 -14.0234379,69.1835955 11.1953122,123.808594 C36.4140623,178.433592 56.2890651,180.562498 89.5976585,173.167967 C122.906252,165.773436 136.824213,169.121092 154.304682,116.722654 C171.785151,64.324217 148.089844,50.0585937 148.089844,50.0585937 C148.089844,50.0585937 128.777344,2.38100782 78.4648435,0.35546875 Z" id="hoofd" fill="#FFFFFF"></path>
	                    <path d="M150.988281,82.9296875 C150.988281,82.9296875 177.125,45.0546875 177.125,81.2773438 C177.125,117.5 163.773438,127.199219 163.773438,127.199219 C163.773438,127.199219 145.03125,137.812502 145.03125,120.632812 C145.03125,103.453123 155.730469,114.542969 155.730469,114.542969 C155.730469,114.542969 166.085938,95.3671874 155.558594,95.3671875 C145.03125,95.3671876 162.082031,79.8867188 162.082031,79.8867188 C162.082031,79.8867188 171.210938,70.8007831 171.210938,92.671875 C171.210938,114.542967 162.253906,116.980469 162.253906,116.980469 L154.515625,122.460938" id="oor" fill="#FFFFFF"></path>
	                    <g id="oog-r" transform="translate(40.112125, 79.195909) scale(-1, 1) translate(-40.112125, -79.195909) translate(18.612125, 63.195909)">
	                        <path d="M0.979049895,18.3546878 C0.979049895,18.3546878 24.1002135,-1.86541216 42.504687,18.8257667 C22.4409736,48.0780315 0.979049895,18.3546878 0.979049895,18.3546878 Z" id="Path-4"></path>
	                        <path d="M1.37324232,18.3531755 C1.37324232,18.3531755 21.5973564,-9.95693042 42.6045592,18.8998691" id="Path-5"></path>
	                        <ellipse id="Oval-1" cx="22.4682115" cy="20.712351" rx="9.10349948" ry="9.09794857"></ellipse>
	                        <ellipse id="Oval-2" fill="#000000" cx="22.4682115" cy="20.712351" rx="2.90537218" ry="2.90360061"></ellipse>
	                        <ellipse id="Oval-3" fill="#FFFFFF" cx="21.4029084" cy="19.8412708" rx="1.45268609" ry="1.4518003"></ellipse>
	                        <path d="M5.6609361,14.95808 C5.6609361,14.95808 6.29194662,21.8443015 4.8770909,21.8443015 C3.46223518,21.8443015 1.20527549,17.7361604 1.20527549,17.7361604 L5.6609361,14.95808 Z" id="Path-6"></path>
	                        <path d="M6.48866453,13.6469229 L0.0968457392,6.48470802" id="Line" stroke-linecap="square"></path>
	                        <path d="M9.58772818,12.0983359 L4.74544122,4.93612103" id="Line-2" stroke-linecap="square"></path>
	                        <path d="M12.4931004,10.7433222 L7.45712192,2.61324055" id="Line-3" stroke-linecap="square"></path>
	                        <path d="M15.7858555,9.581882 L11.9120259,0.871080182" id="Line-4" stroke-linecap="square"></path>
	                        <path d="M19.4659936,8.61401513 L16.7543129,0.0967866869" id="Line-5" stroke-linecap="square"></path>
	                        <path d="M23.3398231,8.22686839 L22.1776743,1.06465356" id="Line-6" stroke-linecap="square"></path>
	                        <path d="M27.7947271,8.22686839 L29.9253334,2.03252043" id="Line-7" stroke-linecap="square"></path>
	                        <path d="M37.6729925,13.2597761 L41.9342051,7.25900152" id="Line-8" stroke-linecap="square"></path>
	                        <path d="M25.2767379,8.22686839 L26.8262698,0.871080182" id="Line-9" stroke-linecap="square"></path>
	                        <path d="M34.3802374,10.9368956 L38.0603755,5.9039879" id="Line-10" stroke-linecap="square"></path>
	                        <path d="M31.2811738,9.38830863 L33.41178,3.19396067" id="Line-11" stroke-linecap="square"></path>
	                    </g>
	                    <g id="oog-l" transform="translate(85.279006, 67.000000)">
	                        <path d="M1.07695488,20.2024752 C1.07695488,20.2024752 26.5102349,-2.05320533 46.7551557,20.7209782 C24.685071,52.9181018 1.07695488,20.2024752 1.07695488,20.2024752 Z" id="Path-9"></path>
	                        <path d="M1.51056655,20.2008106 C1.51056655,20.2008106 23.7570921,-10.959306 46.8650151,20.8025404" id="Path-7"></path>
	                        <ellipse id="Oval-4" cx="24.7150326" cy="22.797487" rx="10.0138494" ry="10.0138494"></ellipse>
	                        <ellipse id="Oval-5" fill="#000000" cx="24.7150326" cy="22.797487" rx="3.19590939" ry="3.19590939"></ellipse>
	                        <ellipse id="Oval-6" fill="#FFFFFF" cx="25.6738055" cy="21.8387142" rx="1.5979547" ry="1.5979547"></ellipse>
	                        <path d="M6.22702971,16.463927 C6.22702971,16.463927 6.92114128,24.0433923 5.36479999,24.0433923 C3.80845869,24.0433923 1.32580304,19.5216799 1.32580304,19.5216799 L6.22702971,16.463927 Z" id="Path-8"></path>
	                        <path d="M7.13753098,15.0207741 L0.106530313,7.13753098" id="Line-12" stroke-linecap="square"></path>
	                        <path d="M10.546501,13.3162891 L5.21998534,5.43304597" id="Line-13" stroke-linecap="square"></path>
	                        <path d="M13.7424104,11.8248648 L8.20283411,2.87631845" id="Line-14" stroke-linecap="square"></path>
	                        <path d="M17.364441,10.546501 L13.1032285,0.958772818" id="Line-15" stroke-linecap="square"></path>
	                        <path d="M21.4125929,9.48119787 L18.4297442,0.106530313" id="Line-16" stroke-linecap="square"></path>
	                        <path d="M25.6738055,9.05507661 L24.3954417,1.17183344" id="Line-17" stroke-linecap="square"></path>
	                        <path d="M30.5741999,9.05507661 L32.9178667,2.23713658" id="Line-18" stroke-linecap="square"></path>
	                        <path d="M41.4402918,14.5946529 L46.1276256,7.98977348" id="Line-19" stroke-linecap="square"></path>
	                        <path d="M27.8044117,9.05507661 L29.5088967,0.958772818" id="Line-20" stroke-linecap="square"></path>
	                        <path d="M37.8182612,12.0379254 L41.8664131,6.4983491" id="Line-21" stroke-linecap="square"></path>
	                        <path d="M34.4092911,10.3334404 L36.752958,3.51550033" id="Line-22" stroke-linecap="square"></path>
	                    </g>
	                    <path d="M89.0293638,109.503906 C89.0293638,109.503906 103.935513,115.06543 92.8236703,122.976713 C81.7118271,130.887996 86.8729532,121.555063 86.8729532,121.555063 C86.8729532,121.555063 86.6689788,110.478966 74.1182577,120.907151 C61.5675366,131.335337 50.4087984,127.362981 50.4087984,127.362981 C50.4087984,127.362981 29.0334172,117.222506 47.4078954,105.907903 C65.7823737,94.5932993 65.8414691,99.0002254 65.8414691,99.0002254" id="neus"></path>
	                    <path d="M105.831543,128.022949 C105.831543,128.022949 99.1074219,152.93457 107.76123,158.936523" id="wang"></path>
	                    <path d="M52.6142578,161.068359 C52.6142578,161.068359 57.4306641,131.567871 49.8691406,130.094727" id="wang"></path>
	                    <g id="mond" transform="translate(54.000000, 137.000000)">
	                        <path d="M0.402832031,5.20973558 L41.895012,4.24885139 C44.7470653,4.18280297 50.4511719,4.05070613 50.4511719,4.05070613 L49.4936523,7.43088942 L42.8081055,7.81986178 C42.8081055,7.81986178 42.8002958,7.78529844 42.796391,7.76801677 C42.577314,6.79844447 42.1391602,4.85929988 42.1391602,4.85929988 L41.4707031,8.26900541 L37.1928711,8.32917668 L35.5566406,5.05761719 L35.8120117,8.10584435 L30.8222656,7.96544471 L30.0991211,5.68231671 L29.5229492,8.60276442 L25.4243164,9.05934495 L23.5981445,5.67240084 L23.7231445,9.29755108 L19.6191406,9.18216647 L18.1948242,6.05866887 L18.2871094,8.95883413 L13.862793,9.25495793 L11.7861328,6.81633113 L12.378418,9.42059796 L9.04101562,9.81700721 L5.96972656,6.38724459 L6.70361328,9.42803486 L0.186035156,9.6313101 L0.402832031,5.20973558 Z" id="boventanden"></path>
	                        <path d="M0.402832031,9.81460337 C0.402832031,9.81460337 28.0642853,8.85371918 41.895012,8.37327708 C44.7470653,8.27420445 50.4511719,8.07605919 50.4511719,8.07605919 L49.4936523,13.1463341 L42.8081055,13.7297927 C42.8081055,13.7297927 42.8002958,13.6779477 42.796391,13.6520252 C42.577314,12.1976667 42.1391602,9.28894982 42.1391602,9.28894982 L41.4707031,14.4035081 L37.1928711,14.493765 L35.5566406,9.58642578 L35.8120117,14.1587665 L30.8222656,13.9481671 L30.0991211,10.5234751 L29.5229492,14.9041466 L25.4243164,15.5890174 L23.5981445,10.5086013 L23.7231445,15.9463266 L19.6191406,15.7732497 L18.1948242,11.0880033 L18.2871094,15.4382512 L13.862793,15.8824369 L11.7861328,12.2244967 L12.378418,16.1308969 L9.04101562,16.7255108 L5.96972656,11.5808669 L6.70361328,16.1420523 L0.186035156,16.4469651 L0.402832031,9.81460337 Z" id="ondertanden" transform="translate(25.000000, 12.500000) scale(-1, -1) translate(-25.000000, -12.500000) "></path>
	                        <path d="M0.250976562,16.828125 L50.140625,15.4589844 L50.6523438,17.6875 C50.6523438,17.6875 33.2919462,29.1717436 2.85638279,21.1138939 C2.00876644,20.8894865 0.283203163,20.1122484 0.283203125,20.3945312 C0.283203087,20.6768142 0.250976562,16.828125 0.250976562,16.828125 Z" id="onderlip" fill="#FFFFFF"></path>
	                        <path d="M0.381347656,5.00097656 L50.0273438,4.17480469 C50.0273438,4.17480469 39.6503906,0.0600585937 31.2739258,0.0600585937 C22.8974609,0.0600585937 26.5063477,3.24511719 17.6245117,0.320800781 C8.74267578,-2.60351563 0.381347656,5.00097656 0.381347656,5.00097656 Z" id="bovenlip" fill="#FFFFFF"></path>
	                    </g>
	                </g>
	                <path d="M16.6054687,196.632812 C16.6054687,196.632812 14.15625,215.070313 25.9414062,226.117188 C37.7265625,237.164062 15.7187507,195.679688 34.6367188,184.285156 C53.5546868,172.890625 48.203125,220.597656 48.203125,220.597656 L65.5546875,174.414062 L71.5117188,215.945312 L82.515625,176.808594 L91.4726562,206.902344 L96.9960938,173.503906 L114.648438,201.292969 L124.738281,171.980469 L124.738281,213.945312 L143.089844,197.683594 L139.960938,231.644531 L135.828125,265.609375 L131.785156,286.699219 L117.871094,300.699219 L108.042969,321.703125 L106.042969,331.3125 C106.042969,331.3125 68.2968757,342.796875 54.9921875,337.054688 C41.6874993,331.3125 28.3359375,321.964844 28.3359375,321.964844 L59.078125,418.242188 L49.8164062,346.839844 L83.1289062,443.8125 L72.7773438,356.1875 L93.5195305,426.898438 L93.5195312,358.839844 L106.042968,426.898438 L113.351563,340.144531 L123.832031,426.898438 L128.007812,339.316406 L142.878906,376.0625 L134.921875,331.664062 L149.488281,332.1875 L143.3125,308.574219 L143.3125,278.480469 L153.226562,235.167969 L155.316406,202.164062 L152.183594,153 L40.9023438,164.113281 L16.6054687,196.632812 Z" id="Path-59" stroke="#FFFFFF" fill="#000000"></path>
	                <path d="M97.263165,0.28515625 C97.263165,0.28515625 98.2015368,37.7119844 97.2631683,39.2695312 C93.2504006,45.9301063 83.4412649,69.9062649 74.2078186,88.4516714 C73.2948529,90.285366 50.1058195,104.293954 57.9257817,111.613281 C70.6893332,123.559709 84.671597,88.4516678 107.484372,111.613281 C109.142311,113.296573 99.4288872,97.3241747 91.1796841,97.21875 C76.9070786,97.0363463 59.4013612,111.613281 57.9257807,111.613281 C40.3124997,111.613281 -17.9023429,232.753906 20.0117187,204.355469 C55.9813684,177.413437 132.640622,166.957031 161.910153,243.667969 C161.910153,243.667969 156.614931,207.40711 157.570309,204.355469 C176.199221,144.851562 97.263165,0.28515625 97.263165,0.28515625 Z" id="hoed" stroke="#000000" fill="#FFFFFF"></path>
	                <g id="rimpels" transform="translate(20.000000, 205.000000)" stroke="#000000">
	                    <path d="M109.105469,72.9677734 C109.105469,72.9677734 73.925293,75.2021484 66.9726562,59.4052734" id="wangrimpel"></path>
	                    <path d="M39.4238281,55.7851562 C39.4238281,55.7851562 9.48876953,79.8500977 4.58544922,72.4951172" id="wangrimpel"></path>
	                    <path d="M-0.104492188,22.5151367 C-0.104492188,22.5151367 26.2358334,11.2031664 43.6875,24.265625 C52.9248047,31.1796873 54.5913086,27.2500002 62.0986328,25.3579102 C82.4098014,20.2388347 99.0957031,7.72363266 114.299805,25.3579102" id="rimpel"></path>
	                    <path d="M6.91292318,5.4292806 C6.91292318,5.4292806 28.8631945,-3.99736136 43.40625,6.88802083 C51.1040039,12.6497394 52.4927572,9.37500018 58.7488607,7.7982585 C75.6748345,3.53236228 89.5797526,-6.89697279 102.249837,7.79825846" id="rimpel"></path>
	                </g>
	            </g>
            </g>
        </g>
    </g>
</svg>